# xmcd
#
# Track frame offsets:
#	150
#	19562
#	39160
#	63885
#	78572
#	103885
#	121875
#	138287
#	157912
#	178932
#
# Disc length: 2639 seconds
# Revision: 3
# Processed by: cddbd v1.5.2PL0 Copyright (c) Steve Scherf et al.
# Submitted via: dBpowerAMP V12.0
#
DISCID=760a4d0a
DTITLE=Artie White - Home Tonight
DYEAR=1997
DGENRE=Blues
TTITLE0=Your Man is Home Tonight
TTITLE1=Somebody's Fool
TTITLE2=Man of The House
TTITLE3=If You Don't Love me
TTITLE4=Black Cat Scratchin'
TTITLE5=High Steppin' Mama
TTITLE6=The More You Lie to me
TTITLE7=Second Chance
TTITLE8=Feet Must be Tired
TTITLE9=One Step From The Blues
EXTD=
EXTT0=
EXTT1=
EXTT2=
EXTT3=
EXTT4=
EXTT5=
EXTT6=
EXTT7=
EXTT8=
EXTT9=
PLAYORDER=
